<mxfile host="app.diagrams.net" modified="2023-10-20T09:14:05.284Z" agent="Mozilla/5.0 (Windows NT 10.0; Win64; x64) AppleWebKit/537.36 (KHTML, like Gecko) Chrome/118.0.0.0 Safari/537.36 Edg/118.0.2088.46" version="22.0.5" etag="s9P-I53u47tpfFcS-ptA" type="github">
  <diagram name="Page-1" id="jnVGxZ4CcKhnj_0rxH5e">
    <mxGraphModel>
      <root>
        <mxCell id="0" />
        <mxCell id="1" parent="0" />
      </root>
    </mxGraphModel>
  </diagram>
</mxfile>
